<mxfile host="app.diagrams.net" modified="2021-03-17T08:07:23.268Z" agent="5.0 (Windows NT 10.0; Win64; x64) AppleWebKit/537.36 (KHTML, like Gecko) Chrome/88.0.4324.152 YaBrowser/21.2.3.100 Yowser/2.5 Safari/537.36" etag="qqpIqVjjAgDROATmMnhE" version="14.4.3" type="github">
  <diagram id="C5RBs43oDa-KdzZeNtuy" name="Page-1">
    <mxGraphModel dx="1038" dy="552" grid="1" gridSize="10" guides="1" tooltips="1" connect="1" arrows="1" fold="1" page="1" pageScale="1" pageWidth="827" pageHeight="1169" math="0" shadow="0">
      <root>
        <mxCell id="WIyWlLk6GJQsqaUBKTNV-0" />
        <mxCell id="WIyWlLk6GJQsqaUBKTNV-1" parent="WIyWlLk6GJQsqaUBKTNV-0" />
        <mxCell id="oNBHsM-2ek9uLYnt5vin-75" style="edgeStyle=orthogonalEdgeStyle;rounded=0;orthogonalLoop=1;jettySize=auto;html=1;exitX=1;exitY=0.25;exitDx=0;exitDy=0;entryX=0;entryY=0.25;entryDx=0;entryDy=0;" edge="1" parent="WIyWlLk6GJQsqaUBKTNV-1" source="oNBHsM-2ek9uLYnt5vin-0" target="oNBHsM-2ek9uLYnt5vin-2">
          <mxGeometry relative="1" as="geometry" />
        </mxCell>
        <mxCell id="oNBHsM-2ek9uLYnt5vin-0" value="&lt;b&gt;Server&lt;/b&gt;" style="shape=process;whiteSpace=wrap;html=1;backgroundOutline=1;" vertex="1" parent="WIyWlLk6GJQsqaUBKTNV-1">
          <mxGeometry x="70" y="90" width="120" height="60" as="geometry" />
        </mxCell>
        <mxCell id="oNBHsM-2ek9uLYnt5vin-1" value="server.py" style="text;html=1;align=center;verticalAlign=middle;resizable=0;points=[];autosize=1;" vertex="1" parent="WIyWlLk6GJQsqaUBKTNV-1">
          <mxGeometry x="100" y="150" width="60" height="20" as="geometry" />
        </mxCell>
        <mxCell id="oNBHsM-2ek9uLYnt5vin-73" style="edgeStyle=orthogonalEdgeStyle;rounded=0;orthogonalLoop=1;jettySize=auto;html=1;exitX=1;exitY=0.25;exitDx=0;exitDy=0;entryX=0;entryY=0.25;entryDx=0;entryDy=0;" edge="1" parent="WIyWlLk6GJQsqaUBKTNV-1" source="oNBHsM-2ek9uLYnt5vin-2" target="oNBHsM-2ek9uLYnt5vin-4">
          <mxGeometry relative="1" as="geometry" />
        </mxCell>
        <mxCell id="oNBHsM-2ek9uLYnt5vin-76" style="edgeStyle=orthogonalEdgeStyle;rounded=0;orthogonalLoop=1;jettySize=auto;html=1;exitX=0;exitY=0.75;exitDx=0;exitDy=0;entryX=1;entryY=0.75;entryDx=0;entryDy=0;" edge="1" parent="WIyWlLk6GJQsqaUBKTNV-1" source="oNBHsM-2ek9uLYnt5vin-2" target="oNBHsM-2ek9uLYnt5vin-0">
          <mxGeometry relative="1" as="geometry" />
        </mxCell>
        <mxCell id="oNBHsM-2ek9uLYnt5vin-2" value="&lt;b&gt;ImageReceiveServicer&lt;/b&gt;" style="shape=process;whiteSpace=wrap;html=1;backgroundOutline=1;" vertex="1" parent="WIyWlLk6GJQsqaUBKTNV-1">
          <mxGeometry x="220" y="90" width="170" height="60" as="geometry" />
        </mxCell>
        <mxCell id="oNBHsM-2ek9uLYnt5vin-3" value="grps_imp/services/image_receive.py" style="text;html=1;align=center;verticalAlign=middle;resizable=0;points=[];autosize=1;" vertex="1" parent="WIyWlLk6GJQsqaUBKTNV-1">
          <mxGeometry x="204" y="160" width="210" height="20" as="geometry" />
        </mxCell>
        <mxCell id="oNBHsM-2ek9uLYnt5vin-56" style="edgeStyle=orthogonalEdgeStyle;rounded=0;orthogonalLoop=1;jettySize=auto;html=1;exitX=0.5;exitY=1;exitDx=0;exitDy=0;entryX=0.5;entryY=0;entryDx=0;entryDy=0;" edge="1" parent="WIyWlLk6GJQsqaUBKTNV-1" source="oNBHsM-2ek9uLYnt5vin-4" target="oNBHsM-2ek9uLYnt5vin-8">
          <mxGeometry relative="1" as="geometry" />
        </mxCell>
        <mxCell id="oNBHsM-2ek9uLYnt5vin-4" value="&lt;b&gt;DefectProcess&lt;/b&gt;&lt;br&gt;" style="shape=process;whiteSpace=wrap;html=1;backgroundOutline=1;" vertex="1" parent="WIyWlLk6GJQsqaUBKTNV-1">
          <mxGeometry x="420" y="90" width="170" height="60" as="geometry" />
        </mxCell>
        <mxCell id="oNBHsM-2ek9uLYnt5vin-7" value="grps_imp/defect_process.py" style="text;html=1;align=center;verticalAlign=middle;resizable=0;points=[];autosize=1;" vertex="1" parent="WIyWlLk6GJQsqaUBKTNV-1">
          <mxGeometry x="414" y="60" width="170" height="20" as="geometry" />
        </mxCell>
        <mxCell id="oNBHsM-2ek9uLYnt5vin-17" style="edgeStyle=orthogonalEdgeStyle;rounded=0;orthogonalLoop=1;jettySize=auto;html=1;exitX=1;exitY=0.25;exitDx=0;exitDy=0;entryX=0;entryY=0.25;entryDx=0;entryDy=0;" edge="1" parent="WIyWlLk6GJQsqaUBKTNV-1" source="oNBHsM-2ek9uLYnt5vin-8" target="oNBHsM-2ek9uLYnt5vin-10">
          <mxGeometry relative="1" as="geometry" />
        </mxCell>
        <mxCell id="oNBHsM-2ek9uLYnt5vin-57" value="" style="edgeStyle=orthogonalEdgeStyle;rounded=0;orthogonalLoop=1;jettySize=auto;html=1;" edge="1" parent="WIyWlLk6GJQsqaUBKTNV-1" source="oNBHsM-2ek9uLYnt5vin-8" target="oNBHsM-2ek9uLYnt5vin-9">
          <mxGeometry relative="1" as="geometry" />
        </mxCell>
        <mxCell id="oNBHsM-2ek9uLYnt5vin-8" value="Run CV-based methods" style="rounded=0;whiteSpace=wrap;html=1;" vertex="1" parent="WIyWlLk6GJQsqaUBKTNV-1">
          <mxGeometry x="432.5" y="180" width="145" height="40" as="geometry" />
        </mxCell>
        <mxCell id="oNBHsM-2ek9uLYnt5vin-67" style="edgeStyle=orthogonalEdgeStyle;rounded=0;orthogonalLoop=1;jettySize=auto;html=1;exitX=0;exitY=0.5;exitDx=0;exitDy=0;" edge="1" parent="WIyWlLk6GJQsqaUBKTNV-1" source="oNBHsM-2ek9uLYnt5vin-9" target="oNBHsM-2ek9uLYnt5vin-60">
          <mxGeometry relative="1" as="geometry" />
        </mxCell>
        <mxCell id="oNBHsM-2ek9uLYnt5vin-69" style="edgeStyle=orthogonalEdgeStyle;rounded=0;orthogonalLoop=1;jettySize=auto;html=1;exitX=0.5;exitY=1;exitDx=0;exitDy=0;entryX=0.5;entryY=0;entryDx=0;entryDy=0;" edge="1" parent="WIyWlLk6GJQsqaUBKTNV-1" source="oNBHsM-2ek9uLYnt5vin-9" target="oNBHsM-2ek9uLYnt5vin-68">
          <mxGeometry relative="1" as="geometry" />
        </mxCell>
        <mxCell id="oNBHsM-2ek9uLYnt5vin-9" value="Run U-Net" style="rounded=0;whiteSpace=wrap;html=1;" vertex="1" parent="WIyWlLk6GJQsqaUBKTNV-1">
          <mxGeometry x="432.5" y="250" width="145" height="40" as="geometry" />
        </mxCell>
        <mxCell id="oNBHsM-2ek9uLYnt5vin-18" style="edgeStyle=orthogonalEdgeStyle;rounded=0;orthogonalLoop=1;jettySize=auto;html=1;exitX=0.5;exitY=1;exitDx=0;exitDy=0;entryX=0.5;entryY=0;entryDx=0;entryDy=0;" edge="1" parent="WIyWlLk6GJQsqaUBKTNV-1" source="oNBHsM-2ek9uLYnt5vin-10" target="oNBHsM-2ek9uLYnt5vin-14">
          <mxGeometry relative="1" as="geometry" />
        </mxCell>
        <mxCell id="oNBHsM-2ek9uLYnt5vin-10" value="&lt;b&gt;ImageProcessing&lt;/b&gt;" style="shape=process;whiteSpace=wrap;html=1;backgroundOutline=1;" vertex="1" parent="WIyWlLk6GJQsqaUBKTNV-1">
          <mxGeometry x="615" y="160" width="130" height="60" as="geometry" />
        </mxCell>
        <mxCell id="oNBHsM-2ek9uLYnt5vin-12" value="grps_imp/image_utils.py" style="text;html=1;align=center;verticalAlign=middle;resizable=0;points=[];autosize=1;" vertex="1" parent="WIyWlLk6GJQsqaUBKTNV-1">
          <mxGeometry x="615" y="130" width="150" height="20" as="geometry" />
        </mxCell>
        <mxCell id="oNBHsM-2ek9uLYnt5vin-58" style="edgeStyle=orthogonalEdgeStyle;rounded=0;orthogonalLoop=1;jettySize=auto;html=1;exitX=0.5;exitY=1;exitDx=0;exitDy=0;entryX=0.5;entryY=0;entryDx=0;entryDy=0;" edge="1" parent="WIyWlLk6GJQsqaUBKTNV-1" source="oNBHsM-2ek9uLYnt5vin-14" target="oNBHsM-2ek9uLYnt5vin-19">
          <mxGeometry relative="1" as="geometry" />
        </mxCell>
        <mxCell id="oNBHsM-2ek9uLYnt5vin-14" value="Change background" style="rounded=0;whiteSpace=wrap;html=1;" vertex="1" parent="WIyWlLk6GJQsqaUBKTNV-1">
          <mxGeometry x="620" y="250" width="120" height="60" as="geometry" />
        </mxCell>
        <mxCell id="oNBHsM-2ek9uLYnt5vin-15" value="grps_imp/back_for_parts.py" style="text;html=1;align=center;verticalAlign=middle;resizable=0;points=[];autosize=1;" vertex="1" parent="WIyWlLk6GJQsqaUBKTNV-1">
          <mxGeometry x="690" y="230" width="160" height="20" as="geometry" />
        </mxCell>
        <mxCell id="oNBHsM-2ek9uLYnt5vin-29" style="edgeStyle=orthogonalEdgeStyle;rounded=0;orthogonalLoop=1;jettySize=auto;html=1;exitX=1;exitY=0.5;exitDx=0;exitDy=0;entryX=0;entryY=0.25;entryDx=0;entryDy=0;" edge="1" parent="WIyWlLk6GJQsqaUBKTNV-1" source="oNBHsM-2ek9uLYnt5vin-19" target="oNBHsM-2ek9uLYnt5vin-24">
          <mxGeometry relative="1" as="geometry" />
        </mxCell>
        <mxCell id="oNBHsM-2ek9uLYnt5vin-31" style="edgeStyle=orthogonalEdgeStyle;rounded=0;orthogonalLoop=1;jettySize=auto;html=1;exitX=1;exitY=0.75;exitDx=0;exitDy=0;entryX=0;entryY=0.5;entryDx=0;entryDy=0;" edge="1" parent="WIyWlLk6GJQsqaUBKTNV-1" source="oNBHsM-2ek9uLYnt5vin-19" target="oNBHsM-2ek9uLYnt5vin-30">
          <mxGeometry relative="1" as="geometry" />
        </mxCell>
        <mxCell id="oNBHsM-2ek9uLYnt5vin-19" value="Splitter()" style="rounded=0;whiteSpace=wrap;html=1;" vertex="1" parent="WIyWlLk6GJQsqaUBKTNV-1">
          <mxGeometry x="625" y="330" width="120" height="50" as="geometry" />
        </mxCell>
        <mxCell id="oNBHsM-2ek9uLYnt5vin-77" style="edgeStyle=orthogonalEdgeStyle;rounded=0;orthogonalLoop=1;jettySize=auto;html=1;exitX=1;exitY=0.5;exitDx=0;exitDy=0;entryX=1;entryY=0.25;entryDx=0;entryDy=0;" edge="1" parent="WIyWlLk6GJQsqaUBKTNV-1" source="oNBHsM-2ek9uLYnt5vin-20" target="oNBHsM-2ek9uLYnt5vin-68">
          <mxGeometry relative="1" as="geometry">
            <Array as="points">
              <mxPoint x="1045" y="470" />
              <mxPoint x="1045" y="530" />
              <mxPoint x="610" y="530" />
              <mxPoint x="610" y="330" />
            </Array>
          </mxGeometry>
        </mxCell>
        <mxCell id="oNBHsM-2ek9uLYnt5vin-20" value="Calculate long-size defects&lt;br&gt;&lt;span style=&quot;font-weight: normal&quot;&gt;(Gabor)&lt;/span&gt;" style="shape=process;whiteSpace=wrap;html=1;backgroundOutline=1;fontStyle=1" vertex="1" parent="WIyWlLk6GJQsqaUBKTNV-1">
          <mxGeometry x="905" y="440" width="120" height="60" as="geometry" />
        </mxCell>
        <mxCell id="oNBHsM-2ek9uLYnt5vin-72" style="edgeStyle=orthogonalEdgeStyle;rounded=0;orthogonalLoop=1;jettySize=auto;html=1;exitX=1;exitY=0.5;exitDx=0;exitDy=0;entryX=1;entryY=0.75;entryDx=0;entryDy=0;" edge="1" parent="WIyWlLk6GJQsqaUBKTNV-1" source="oNBHsM-2ek9uLYnt5vin-21" target="oNBHsM-2ek9uLYnt5vin-68">
          <mxGeometry relative="1" as="geometry">
            <Array as="points">
              <mxPoint x="1340" y="325" />
              <mxPoint x="1340" y="790" />
              <mxPoint x="590" y="790" />
              <mxPoint x="590" y="350" />
            </Array>
          </mxGeometry>
        </mxCell>
        <mxCell id="oNBHsM-2ek9uLYnt5vin-21" value="Run Point-like Detector" style="shape=process;whiteSpace=wrap;html=1;backgroundOutline=1;fontStyle=1" vertex="1" parent="WIyWlLk6GJQsqaUBKTNV-1">
          <mxGeometry x="915" y="300" width="120" height="50" as="geometry" />
        </mxCell>
        <mxCell id="oNBHsM-2ek9uLYnt5vin-79" style="edgeStyle=orthogonalEdgeStyle;rounded=0;orthogonalLoop=1;jettySize=auto;html=1;exitX=1;exitY=0.5;exitDx=0;exitDy=0;entryX=0;entryY=0.5;entryDx=0;entryDy=0;" edge="1" parent="WIyWlLk6GJQsqaUBKTNV-1" source="oNBHsM-2ek9uLYnt5vin-23" target="oNBHsM-2ek9uLYnt5vin-38">
          <mxGeometry relative="1" as="geometry" />
        </mxCell>
        <mxCell id="oNBHsM-2ek9uLYnt5vin-23" value="Run Area Defect Detector" style="shape=process;whiteSpace=wrap;html=1;backgroundOutline=1;fontStyle=1" vertex="1" parent="WIyWlLk6GJQsqaUBKTNV-1">
          <mxGeometry x="915" y="370" width="120" height="50" as="geometry" />
        </mxCell>
        <mxCell id="oNBHsM-2ek9uLYnt5vin-26" style="edgeStyle=orthogonalEdgeStyle;rounded=0;orthogonalLoop=1;jettySize=auto;html=1;exitX=1;exitY=0.25;exitDx=0;exitDy=0;entryX=0;entryY=0.5;entryDx=0;entryDy=0;" edge="1" parent="WIyWlLk6GJQsqaUBKTNV-1" source="oNBHsM-2ek9uLYnt5vin-24" target="oNBHsM-2ek9uLYnt5vin-21">
          <mxGeometry relative="1" as="geometry" />
        </mxCell>
        <mxCell id="oNBHsM-2ek9uLYnt5vin-27" style="edgeStyle=orthogonalEdgeStyle;rounded=0;orthogonalLoop=1;jettySize=auto;html=1;exitX=1;exitY=0.75;exitDx=0;exitDy=0;entryX=0;entryY=0.5;entryDx=0;entryDy=0;" edge="1" parent="WIyWlLk6GJQsqaUBKTNV-1" source="oNBHsM-2ek9uLYnt5vin-24" target="oNBHsM-2ek9uLYnt5vin-23">
          <mxGeometry relative="1" as="geometry" />
        </mxCell>
        <mxCell id="oNBHsM-2ek9uLYnt5vin-24" value="for &lt;b&gt;&lt;i&gt;1024x1024&lt;/i&gt;&lt;/b&gt; partitions&amp;nbsp;&amp;nbsp;" style="rounded=0;whiteSpace=wrap;html=1;" vertex="1" parent="WIyWlLk6GJQsqaUBKTNV-1">
          <mxGeometry x="790" y="325" width="85" height="75" as="geometry" />
        </mxCell>
        <mxCell id="oNBHsM-2ek9uLYnt5vin-32" style="edgeStyle=orthogonalEdgeStyle;rounded=0;orthogonalLoop=1;jettySize=auto;html=1;exitX=1;exitY=0.5;exitDx=0;exitDy=0;entryX=0;entryY=0.5;entryDx=0;entryDy=0;" edge="1" parent="WIyWlLk6GJQsqaUBKTNV-1" source="oNBHsM-2ek9uLYnt5vin-30" target="oNBHsM-2ek9uLYnt5vin-20">
          <mxGeometry relative="1" as="geometry" />
        </mxCell>
        <mxCell id="oNBHsM-2ek9uLYnt5vin-30" value="for&amp;nbsp;&lt;i&gt;&lt;b&gt;&amp;nbsp;whole &lt;/b&gt;frame&lt;/i&gt;" style="rounded=0;whiteSpace=wrap;html=1;" vertex="1" parent="WIyWlLk6GJQsqaUBKTNV-1">
          <mxGeometry x="792.5" y="432.5" width="85" height="75" as="geometry" />
        </mxCell>
        <mxCell id="oNBHsM-2ek9uLYnt5vin-34" value="grps_imp/cv_detector/point_like_defect_detector.py" style="text;html=1;align=center;verticalAlign=middle;resizable=0;points=[];autosize=1;" vertex="1" parent="WIyWlLk6GJQsqaUBKTNV-1">
          <mxGeometry x="850" y="280" width="290" height="20" as="geometry" />
        </mxCell>
        <mxCell id="oNBHsM-2ek9uLYnt5vin-81" style="edgeStyle=orthogonalEdgeStyle;rounded=0;orthogonalLoop=1;jettySize=auto;html=1;exitX=0.5;exitY=1;exitDx=0;exitDy=0;entryX=0.5;entryY=0;entryDx=0;entryDy=0;" edge="1" parent="WIyWlLk6GJQsqaUBKTNV-1" source="oNBHsM-2ek9uLYnt5vin-35" target="oNBHsM-2ek9uLYnt5vin-39">
          <mxGeometry relative="1" as="geometry" />
        </mxCell>
        <mxCell id="oNBHsM-2ek9uLYnt5vin-35" value="Image normalization" style="rounded=0;whiteSpace=wrap;html=1;" vertex="1" parent="WIyWlLk6GJQsqaUBKTNV-1">
          <mxGeometry x="1095" y="420" width="120" height="30" as="geometry" />
        </mxCell>
        <mxCell id="oNBHsM-2ek9uLYnt5vin-80" style="edgeStyle=orthogonalEdgeStyle;rounded=0;orthogonalLoop=1;jettySize=auto;html=1;exitX=0.5;exitY=1;exitDx=0;exitDy=0;entryX=0.5;entryY=0;entryDx=0;entryDy=0;" edge="1" parent="WIyWlLk6GJQsqaUBKTNV-1" source="oNBHsM-2ek9uLYnt5vin-38" target="oNBHsM-2ek9uLYnt5vin-35">
          <mxGeometry relative="1" as="geometry" />
        </mxCell>
        <mxCell id="oNBHsM-2ek9uLYnt5vin-38" value="4x4 partitioning" style="rounded=0;whiteSpace=wrap;html=1;" vertex="1" parent="WIyWlLk6GJQsqaUBKTNV-1">
          <mxGeometry x="1095" y="370" width="120" height="30" as="geometry" />
        </mxCell>
        <mxCell id="oNBHsM-2ek9uLYnt5vin-45" style="edgeStyle=orthogonalEdgeStyle;rounded=0;orthogonalLoop=1;jettySize=auto;html=1;exitX=0.5;exitY=1;exitDx=0;exitDy=0;" edge="1" parent="WIyWlLk6GJQsqaUBKTNV-1" source="oNBHsM-2ek9uLYnt5vin-39" target="oNBHsM-2ek9uLYnt5vin-42">
          <mxGeometry relative="1" as="geometry" />
        </mxCell>
        <mxCell id="oNBHsM-2ek9uLYnt5vin-39" value="AreaDefectDetector" style="shape=process;whiteSpace=wrap;html=1;backgroundOutline=1;fontStyle=1" vertex="1" parent="WIyWlLk6GJQsqaUBKTNV-1">
          <mxGeometry x="1080" y="472" width="150" height="60" as="geometry" />
        </mxCell>
        <mxCell id="oNBHsM-2ek9uLYnt5vin-41" value="grps_imp/area_defect_detector/area_defect_detector.py" style="text;html=1;align=center;verticalAlign=middle;resizable=0;points=[];autosize=1;" vertex="1" parent="WIyWlLk6GJQsqaUBKTNV-1">
          <mxGeometry x="1192.5" y="450" width="310" height="20" as="geometry" />
        </mxCell>
        <mxCell id="oNBHsM-2ek9uLYnt5vin-46" style="edgeStyle=orthogonalEdgeStyle;rounded=0;orthogonalLoop=1;jettySize=auto;html=1;exitX=0.5;exitY=1;exitDx=0;exitDy=0;" edge="1" parent="WIyWlLk6GJQsqaUBKTNV-1" source="oNBHsM-2ek9uLYnt5vin-42" target="oNBHsM-2ek9uLYnt5vin-43">
          <mxGeometry relative="1" as="geometry" />
        </mxCell>
        <mxCell id="oNBHsM-2ek9uLYnt5vin-42" value="AnomalyDetector" style="shape=process;whiteSpace=wrap;html=1;backgroundOutline=1;fontStyle=1" vertex="1" parent="WIyWlLk6GJQsqaUBKTNV-1">
          <mxGeometry x="1072.5" y="562" width="165" height="45" as="geometry" />
        </mxCell>
        <mxCell id="oNBHsM-2ek9uLYnt5vin-47" style="edgeStyle=orthogonalEdgeStyle;rounded=0;orthogonalLoop=1;jettySize=auto;html=1;exitX=0.5;exitY=1;exitDx=0;exitDy=0;" edge="1" parent="WIyWlLk6GJQsqaUBKTNV-1" source="oNBHsM-2ek9uLYnt5vin-43" target="oNBHsM-2ek9uLYnt5vin-44">
          <mxGeometry relative="1" as="geometry" />
        </mxCell>
        <mxCell id="oNBHsM-2ek9uLYnt5vin-43" value="SegmentationModule" style="shape=process;whiteSpace=wrap;html=1;backgroundOutline=1;fontStyle=1" vertex="1" parent="WIyWlLk6GJQsqaUBKTNV-1">
          <mxGeometry x="1072.5" y="642" width="165" height="45" as="geometry" />
        </mxCell>
        <mxCell id="oNBHsM-2ek9uLYnt5vin-71" style="edgeStyle=orthogonalEdgeStyle;rounded=0;orthogonalLoop=1;jettySize=auto;html=1;exitX=0.5;exitY=1;exitDx=0;exitDy=0;entryX=1;entryY=0.5;entryDx=0;entryDy=0;" edge="1" parent="WIyWlLk6GJQsqaUBKTNV-1" source="oNBHsM-2ek9uLYnt5vin-44" target="oNBHsM-2ek9uLYnt5vin-68">
          <mxGeometry relative="1" as="geometry">
            <Array as="points">
              <mxPoint x="1155" y="777" />
              <mxPoint x="600" y="777" />
              <mxPoint x="600" y="340" />
            </Array>
          </mxGeometry>
        </mxCell>
        <mxCell id="oNBHsM-2ek9uLYnt5vin-44" value="CountourDetector" style="shape=process;whiteSpace=wrap;html=1;backgroundOutline=1;fontStyle=1" vertex="1" parent="WIyWlLk6GJQsqaUBKTNV-1">
          <mxGeometry x="1072.5" y="712" width="165" height="45" as="geometry" />
        </mxCell>
        <mxCell id="oNBHsM-2ek9uLYnt5vin-48" value="anomaly_detector.py" style="text;html=1;align=center;verticalAlign=middle;resizable=0;points=[];autosize=1;" vertex="1" parent="WIyWlLk6GJQsqaUBKTNV-1">
          <mxGeometry x="1192.5" y="542" width="130" height="20" as="geometry" />
        </mxCell>
        <mxCell id="oNBHsM-2ek9uLYnt5vin-49" value="segmentation_module.py" style="text;html=1;align=center;verticalAlign=middle;resizable=0;points=[];autosize=1;" vertex="1" parent="WIyWlLk6GJQsqaUBKTNV-1">
          <mxGeometry x="1183.5" y="622" width="150" height="20" as="geometry" />
        </mxCell>
        <mxCell id="oNBHsM-2ek9uLYnt5vin-50" value="contour_detector.py" style="text;html=1;align=center;verticalAlign=middle;resizable=0;points=[];autosize=1;" vertex="1" parent="WIyWlLk6GJQsqaUBKTNV-1">
          <mxGeometry x="1192.5" y="692" width="120" height="20" as="geometry" />
        </mxCell>
        <mxCell id="oNBHsM-2ek9uLYnt5vin-55" value="cv_detector/LongSizeDefectDetector.py" style="text;html=1;align=center;verticalAlign=middle;resizable=0;points=[];autosize=1;" vertex="1" parent="WIyWlLk6GJQsqaUBKTNV-1">
          <mxGeometry x="870" y="420" width="230" height="20" as="geometry" />
        </mxCell>
        <mxCell id="oNBHsM-2ek9uLYnt5vin-59" value="Detector/detector.py" style="text;html=1;align=center;verticalAlign=middle;resizable=0;points=[];autosize=1;" vertex="1" parent="WIyWlLk6GJQsqaUBKTNV-1">
          <mxGeometry x="390" y="230" width="120" height="20" as="geometry" />
        </mxCell>
        <mxCell id="oNBHsM-2ek9uLYnt5vin-63" style="edgeStyle=orthogonalEdgeStyle;rounded=0;orthogonalLoop=1;jettySize=auto;html=1;exitX=0.5;exitY=1;exitDx=0;exitDy=0;entryX=0.5;entryY=0;entryDx=0;entryDy=0;" edge="1" parent="WIyWlLk6GJQsqaUBKTNV-1" source="oNBHsM-2ek9uLYnt5vin-60" target="oNBHsM-2ek9uLYnt5vin-61">
          <mxGeometry relative="1" as="geometry" />
        </mxCell>
        <mxCell id="oNBHsM-2ek9uLYnt5vin-60" value="for &lt;b&gt;&lt;i&gt;1024x1024&lt;/i&gt;&lt;/b&gt; partitions&amp;nbsp;&amp;nbsp;" style="rounded=0;whiteSpace=wrap;html=1;" vertex="1" parent="WIyWlLk6GJQsqaUBKTNV-1">
          <mxGeometry x="266.5" y="232.5" width="85" height="75" as="geometry" />
        </mxCell>
        <mxCell id="oNBHsM-2ek9uLYnt5vin-70" style="edgeStyle=orthogonalEdgeStyle;rounded=0;orthogonalLoop=1;jettySize=auto;html=1;exitX=0.5;exitY=1;exitDx=0;exitDy=0;entryX=0;entryY=0.5;entryDx=0;entryDy=0;" edge="1" parent="WIyWlLk6GJQsqaUBKTNV-1" source="oNBHsM-2ek9uLYnt5vin-61" target="oNBHsM-2ek9uLYnt5vin-68">
          <mxGeometry relative="1" as="geometry" />
        </mxCell>
        <mxCell id="oNBHsM-2ek9uLYnt5vin-61" value="Detect" style="rounded=0;whiteSpace=wrap;html=1;" vertex="1" parent="WIyWlLk6GJQsqaUBKTNV-1">
          <mxGeometry x="249" y="330" width="120" height="20" as="geometry" />
        </mxCell>
        <mxCell id="oNBHsM-2ek9uLYnt5vin-74" style="edgeStyle=orthogonalEdgeStyle;rounded=0;orthogonalLoop=1;jettySize=auto;html=1;exitX=0.5;exitY=1;exitDx=0;exitDy=0;entryX=1;entryY=0.75;entryDx=0;entryDy=0;" edge="1" parent="WIyWlLk6GJQsqaUBKTNV-1" source="oNBHsM-2ek9uLYnt5vin-68" target="oNBHsM-2ek9uLYnt5vin-2">
          <mxGeometry relative="1" as="geometry">
            <Array as="points">
              <mxPoint x="505" y="380" />
              <mxPoint x="240" y="380" />
              <mxPoint x="240" y="190" />
              <mxPoint x="410" y="190" />
              <mxPoint x="410" y="135" />
            </Array>
          </mxGeometry>
        </mxCell>
        <mxCell id="oNBHsM-2ek9uLYnt5vin-68" value="ListToJSONObjects" style="rounded=0;whiteSpace=wrap;html=1;" vertex="1" parent="WIyWlLk6GJQsqaUBKTNV-1">
          <mxGeometry x="445" y="320" width="120" height="40" as="geometry" />
        </mxCell>
        <mxCell id="oNBHsM-2ek9uLYnt5vin-82" style="edgeStyle=orthogonalEdgeStyle;rounded=0;orthogonalLoop=1;jettySize=auto;html=1;exitX=0.5;exitY=1;exitDx=0;exitDy=0;" edge="1" parent="WIyWlLk6GJQsqaUBKTNV-1" source="oNBHsM-2ek9uLYnt5vin-35" target="oNBHsM-2ek9uLYnt5vin-35">
          <mxGeometry relative="1" as="geometry" />
        </mxCell>
      </root>
    </mxGraphModel>
  </diagram>
</mxfile>
